<svg xmlns="http://www.w3.org/2000/svg" height="502" width="960.0" font-size="16" font-family="sans-serif" stroke-width="2">
<g transform="translate(10.0 0)">
<g fill="hsl(0, 100%, 40%)">
<text y="22">bigint (Scott).addition scaling.1</text>
<text y="22" x="375.87861401340655" text-anchor="end">657  μs</text>
</g>
<g>
<title>657  μs ±  33 μs</title>
<rect y="28" rx="5" height="22" width="375.87861401340655" fill="hsl(0, 100%, 80%)" stroke="hsl(0, 100%, 55%)" />
<g stroke="hsl(0, 100%, 40%)"><line x1="356.79511402813824" x2="394.96211399867485" y1="39" y2="39" />
<line x1="356.79511402813824" x2="356.79511402813824" y1="33" y2="45" />
<line x1="394.96211399867485" x2="394.96211399867485" y1="33" y2="45" />
</g>
</g>
<g fill="hsl(40, 100%, 40%)">
<text y="77">bigint (Scott).addition scaling.4</text>
<text y="77" x="388.6590410468359" text-anchor="end">679  μs</text>
</g>
<g>
<title>679  μs ±  52 μs</title>
<rect y="83" rx="5" height="22" width="388.6590410468359" fill="hsl(40, 100%, 80%)" stroke="hsl(40, 100%, 55%)" />
<g stroke="hsl(40, 100%, 40%)"><line x1="358.70678598255563" x2="418.6112961111162" y1="94" y2="94" />
<line x1="358.70678598255563" x2="358.70678598255563" y1="88" y2="100" />
<line x1="418.6112961111162" x2="418.6112961111162" y1="88" y2="100" />
</g>
</g>
<g fill="hsl(80, 100%, 40%)">
<text y="132">bigint (Scott).addition scaling.16</text>
<text y="132" x="408.8068453844618" text-anchor="end">715  μs</text>
</g>
<g>
<title>715  μs ±  46 μs</title>
<rect y="138" rx="5" height="22" width="408.8068453844618" fill="hsl(80, 100%, 80%)" stroke="hsl(80, 100%, 55%)" />
<g stroke="hsl(80, 100%, 40%)"><line x1="382.7116663189133" x2="434.9020244500103" y1="149" y2="149" />
<line x1="382.7116663189133" x2="382.7116663189133" y1="143" y2="155" />
<line x1="434.9020244500103" x2="434.9020244500103" y1="143" y2="155" />
</g>
</g>
<g fill="hsl(120, 100%, 40%)">
<text y="187">bigint (Scott).addition scaling.64</text>
<text y="187" x="454.9571773705633" text-anchor="end">795  μs</text>
</g>
<g>
<title>795  μs ±  72 μs</title>
<rect y="193" rx="5" height="22" width="454.9571773705633" fill="hsl(120, 100%, 80%)" stroke="hsl(120, 100%, 55%)" />
<g stroke="hsl(120, 100%, 40%)"><line x1="413.8789315837524" x2="496.03542315737417" y1="204" y2="204" />
<line x1="413.8789315837524" x2="413.8789315837524" y1="198" y2="210" />
<line x1="496.03542315737417" x2="496.03542315737417" y1="198" y2="210" />
</g>
</g>
<g fill="hsl(160, 100%, 40%)">
<text y="242">bigint (Scott).addition scaling.256</text>
<text y="242" x="520.0187302863659" text-anchor="end">909  μs</text>
</g>
<g>
<title>909  μs ±  83 μs</title>
<rect y="248" rx="5" height="22" width="520.0187302863659" fill="hsl(160, 100%, 80%)" stroke="hsl(160, 100%, 55%)" />
<g stroke="hsl(160, 100%, 40%)"><line x1="472.27017966043536" x2="567.7672809122964" y1="259" y2="259" />
<line x1="472.27017966043536" x2="472.27017966043536" y1="253" y2="265" />
<line x1="567.7672809122964" x2="567.7672809122964" y1="253" y2="265" />
</g>
</g>
<g fill="hsl(200, 100%, 40%)">
<text y="297">bigint (Scott).addition scaling.1024</text>
<text y="297" x="587.1592158702052" text-anchor="end">1.03 ms</text>
</g>
<g>
<title>1.03 ms ±  56 μs</title>
<rect y="303" rx="5" height="22" width="587.1592158702052" fill="hsl(200, 100%, 80%)" stroke="hsl(200, 100%, 55%)" />
<g stroke="hsl(200, 100%, 40%)"><line x1="554.978630502161" x2="619.3398012382495" y1="314" y2="314" />
<line x1="554.978630502161" x2="554.978630502161" y1="308" y2="320" />
<line x1="619.3398012382495" x2="619.3398012382495" y1="308" y2="320" />
</g>
</g>
<g fill="hsl(240, 100%, 40%)">
<text y="352">bigint (Scott).addition scaling.4096</text>
<text y="352" x="704.7356917434153" text-anchor="end">1.23 ms</text>
</g>
<g>
<title>1.23 ms ±  80 μs</title>
<rect y="358" rx="5" height="22" width="704.7356917434153" fill="hsl(240, 100%, 80%)" stroke="hsl(240, 100%, 55%)" />
<g stroke="hsl(240, 100%, 40%)"><line x1="659.0001454826375" x2="750.471238004193" y1="369" y2="369" />
<line x1="659.0001454826375" x2="659.0001454826375" y1="363" y2="375" />
<line x1="750.471238004193" x2="750.471238004193" y1="363" y2="375" />
</g>
</g>
<g fill="hsl(280, 100%, 40%)">
<text y="407">bigint (Scott).addition scaling.16384</text>
<text y="407" x="774.6367870819134" text-anchor="end">1.35 ms</text>
</g>
<g>
<title>1.35 ms ±  83 μs</title>
<rect y="413" rx="5" height="22" width="774.6367870819134" fill="hsl(280, 100%, 80%)" stroke="hsl(280, 100%, 55%)" />
<g stroke="hsl(280, 100%, 40%)"><line x1="727.1746692053608" x2="822.098904958466" y1="424" y2="424" />
<line x1="727.1746692053608" x2="727.1746692053608" y1="418" y2="430" />
<line x1="822.098904958466" x2="822.098904958466" y1="418" y2="430" />
</g>
</g>
<g fill="hsl(320, 100%, 40%)">
<text y="462">bigint (Scott).addition scaling.65536</text>
<text y="462" x="898.9833174223305" text-anchor="end">1.57 ms</text>
</g>
<g>
<title>1.57 ms ±  72 μs</title>
<rect y="468" rx="5" height="22" width="898.9833174223305" fill="hsl(320, 100%, 80%)" stroke="hsl(320, 100%, 55%)" />
<g stroke="hsl(320, 100%, 40%)"><line x1="857.966634844661" x2="940.0" y1="479" y2="479" />
<line x1="857.966634844661" x2="857.966634844661" y1="473" y2="485" />
<line x1="940.0" x2="940.0" y1="473" y2="485" />
</g>
</g>
</g>
</svg>
