<svg xmlns="http://www.w3.org/2000/svg" height="502" width="960.0" font-size="16" font-family="sans-serif" stroke-width="2">
<g transform="translate(10.0 0)">
<text fill="hsl(0, 100%, 40%)" y="22">bigint (Scott).addition scaling.1 666  μs</text>
<g>
<title>666  μs ±  22 μs</title>
<rect y="28" rx="5" height="22" width="219.26092700577775" fill="hsl(0, 100%, 80%)" stroke="hsl(0, 100%, 55%)" />
<g stroke="hsl(0, 100%, 40%)"><line x1="212.08783618995125" x2="226.43401782160424" y1="39" y2="39" />
<line x1="212.08783618995125" x2="212.08783618995125" y1="33" y2="45" />
<line x1="226.43401782160424" x2="226.43401782160424" y1="33" y2="45" />
</g>
</g>
<text fill="hsl(40, 100%, 40%)" y="77">bigint (Scott).addition scaling.8 695  μs</text>
<g>
<title>695  μs ±  58 μs</title>
<rect y="83" rx="5" height="22" width="228.8931569191581" fill="hsl(40, 100%, 80%)" stroke="hsl(40, 100%, 55%)" />
<g stroke="hsl(40, 100%, 40%)"><line x1="209.77062661815467" x2="248.0156872201615" y1="94" y2="94" />
<line x1="209.77062661815467" x2="209.77062661815467" y1="88" y2="100" />
<line x1="248.0156872201615" x2="248.0156872201615" y1="88" y2="100" />
</g>
</g>
<text fill="hsl(80, 100%, 40%)" y="132">bigint (Scott).addition scaling.64 793  μs</text>
<g>
<title>793  μs ±  61 μs</title>
<rect y="138" rx="5" height="22" width="260.9156929324119" fill="hsl(80, 100%, 80%)" stroke="hsl(80, 100%, 55%)" />
<g stroke="hsl(80, 100%, 40%)"><line x1="240.94608369328125" x2="280.88530217154255" y1="149" y2="149" />
<line x1="240.94608369328125" x2="240.94608369328125" y1="143" y2="155" />
<line x1="280.88530217154255" x2="280.88530217154255" y1="143" y2="155" />
</g>
</g>
<text fill="hsl(120, 100%, 40%)" y="187">bigint (Scott).addition scaling.512 968  μs</text>
<g>
<title>968  μs ±  94 μs</title>
<rect y="193" rx="5" height="22" width="318.7529665641761" fill="hsl(120, 100%, 80%)" stroke="hsl(120, 100%, 55%)" />
<g stroke="hsl(120, 100%, 40%)"><line x1="287.8211742905968" x2="349.68475883775545" y1="204" y2="204" />
<line x1="287.8211742905968" x2="287.8211742905968" y1="198" y2="210" />
<line x1="349.68475883775545" x2="349.68475883775545" y1="198" y2="210" />
</g>
</g>
<g fill="hsl(160, 100%, 40%)">
<text y="242">bigint (Scott).addition scaling.4096</text>
<text y="242" x="400.2692263718919" text-anchor="end">1.22 ms</text>
</g>
<g>
<title>1.22 ms ± 120 μs</title>
<rect y="248" rx="5" height="22" width="400.2692263718919" fill="hsl(160, 100%, 80%)" stroke="hsl(160, 100%, 55%)" />
<g stroke="hsl(160, 100%, 40%)"><line x1="360.84397454905974" x2="439.694478194724" y1="259" y2="259" />
<line x1="360.84397454905974" x2="360.84397454905974" y1="253" y2="265" />
<line x1="439.694478194724" x2="439.694478194724" y1="253" y2="265" />
</g>
</g>
<g fill="hsl(200, 100%, 40%)">
<text y="297">bigint (Scott).addition scaling.32768</text>
<text y="297" x="471.76403215743824" text-anchor="end">1.43 ms</text>
</g>
<g>
<title>1.43 ms ±  53 μs</title>
<rect y="303" rx="5" height="22" width="471.76403215743824" fill="hsl(200, 100%, 80%)" stroke="hsl(200, 100%, 55%)" />
<g stroke="hsl(200, 100%, 40%)"><line x1="454.3957081565485" x2="489.132356158328" y1="314" y2="314" />
<line x1="454.3957081565485" x2="454.3957081565485" y1="308" y2="320" />
<line x1="489.132356158328" x2="489.132356158328" y1="308" y2="320" />
</g>
</g>
<g fill="hsl(240, 100%, 40%)">
<text y="352">bigint (Scott).addition scaling.262144</text>
<text y="352" x="582.9198971735245" text-anchor="end">1.77 ms</text>
</g>
<g>
<title>1.77 ms ±  98 μs</title>
<rect y="358" rx="5" height="22" width="582.9198971735245" fill="hsl(240, 100%, 80%)" stroke="hsl(240, 100%, 55%)" />
<g stroke="hsl(240, 100%, 40%)"><line x1="550.671562152408" x2="615.1682321946411" y1="369" y2="369" />
<line x1="550.671562152408" x2="550.671562152408" y1="363" y2="375" />
<line x1="615.1682321946411" x2="615.1682321946411" y1="363" y2="375" />
</g>
</g>
<g fill="hsl(280, 100%, 40%)">
<text y="407">bigint (Scott).addition scaling.2097152</text>
<text y="407" x="710.9962707059977" text-anchor="end">2.16 ms</text>
</g>
<g>
<title>2.16 ms ± 159 μs</title>
<rect y="413" rx="5" height="22" width="710.9962707059977" fill="hsl(280, 100%, 80%)" stroke="hsl(280, 100%, 55%)" />
<g stroke="hsl(280, 100%, 40%)"><line x1="658.6267038956844" x2="763.3658375163111" y1="424" y2="424" />
<line x1="658.6267038956844" x2="658.6267038956844" y1="418" y2="430" />
<line x1="763.3658375163111" x2="763.3658375163111" y1="418" y2="430" />
</g>
</g>
<g fill="hsl(320, 100%, 40%)">
<text y="462">bigint (Scott).addition scaling.16777216</text>
<text y="462" x="876.0172636929941" text-anchor="end">2.66 ms</text>
</g>
<g>
<title>2.66 ms ± 194 μs</title>
<rect y="468" rx="5" height="22" width="876.0172636929941" fill="hsl(320, 100%, 80%)" stroke="hsl(320, 100%, 55%)" />
<g stroke="hsl(320, 100%, 40%)"><line x1="812.0345273859882" x2="940.0" y1="479" y2="479" />
<line x1="812.0345273859882" x2="812.0345273859882" y1="473" y2="485" />
<line x1="940.0" x2="940.0" y1="473" y2="485" />
</g>
</g>
</g>
</svg>
