<svg xmlns="http://www.w3.org/2000/svg" height="2097" width="960.0" font-size="16" font-family="sans-serif" stroke-width="2">
<g transform="translate(10.0 0)">
<text fill="hsl(0, 100%, 40%)" y="22">boolean not (Church).no fusion.1 388  ns</text>
<g>
<title>388  ns ±  22 ns</title>
<rect y="28" rx="5" height="22" width="5.3255736179056" fill="hsl(0, 100%, 80%)" stroke="hsl(0, 100%, 55%)" />
<g stroke="hsl(0, 100%, 40%)"><line x1="5.017081739248829" x2="5.63406549656237" y1="39" y2="39" />
<line x1="5.017081739248829" x2="5.017081739248829" y1="33" y2="45" />
<line x1="5.63406549656237" x2="5.63406549656237" y1="33" y2="45" />
</g>
</g>
<text fill="hsl(9, 100%, 40%)" y="77">boolean not (Church).no fusion.4 1.62 μs</text>
<g>
<title>1.62 μs ± 140 ns</title>
<rect y="83" rx="5" height="22" width="22.199588186281513" fill="hsl(9, 100%, 80%)" stroke="hsl(9, 100%, 55%)" />
<g stroke="hsl(9, 100%, 40%)"><line x1="20.27814094954199" x2="24.121035423021038" y1="94" y2="94" />
<line x1="20.27814094954199" x2="20.27814094954199" y1="88" y2="100" />
<line x1="24.121035423021038" x2="24.121035423021038" y1="88" y2="100" />
</g>
</g>
<text fill="hsl(18, 100%, 40%)" y="132">boolean not (Church).no fusion.16 4.06 μs</text>
<g>
<title>4.06 μs ± 276 ns</title>
<rect y="138" rx="5" height="22" width="55.70276115569173" fill="hsl(18, 100%, 80%)" stroke="hsl(18, 100%, 55%)" />
<g stroke="hsl(18, 100%, 40%)"><line x1="51.92127967139911" x2="59.48424263998435" y1="149" y2="149" />
<line x1="51.92127967139911" x2="51.92127967139911" y1="143" y2="155" />
<line x1="59.48424263998435" x2="59.48424263998435" y1="143" y2="155" />
</g>
</g>
<text fill="hsl(28, 100%, 40%)" y="187">boolean not (Church).no fusion.64 13.4 μs</text>
<g>
<title>13.4 μs ± 789 ns</title>
<rect y="193" rx="5" height="22" width="183.98161201010274" fill="hsl(28, 100%, 80%)" stroke="hsl(28, 100%, 55%)" />
<g stroke="hsl(28, 100%, 40%)"><line x1="173.16035792890875" x2="194.80286609129672" y1="204" y2="204" />
<line x1="173.16035792890875" x2="173.16035792890875" y1="198" y2="210" />
<line x1="194.80286609129672" x2="194.80286609129672" y1="198" y2="210" />
</g>
</g>
<g fill="hsl(37, 100%, 40%)">
<text y="242">boolean not (Church).no fusion.256</text>
<text y="242" x="720.0728001341924" text-anchor="end">52.5 μs</text>
</g>
<g>
<title>52.5 μs ± 2.3 μs</title>
<rect y="248" rx="5" height="22" width="720.0728001341924" fill="hsl(37, 100%, 80%)" stroke="hsl(37, 100%, 55%)" />
<g stroke="hsl(37, 100%, 40%)"><line x1="687.9886019953587" x2="752.1569982730261" y1="259" y2="259" />
<line x1="687.9886019953587" x2="687.9886019953587" y1="253" y2="265" />
<line x1="752.1569982730261" x2="752.1569982730261" y1="253" y2="265" />
</g>
</g>
<text fill="hsl(47, 100%, 40%)" y="297">boolean not (Church).fusion.1 359  ns</text>
<g>
<title>359  ns ±  24 ns</title>
<rect y="303" rx="5" height="22" width="4.919254524570713" fill="hsl(47, 100%, 80%)" stroke="hsl(47, 100%, 55%)" />
<g stroke="hsl(47, 100%, 40%)"><line x1="4.590072121406986" x2="5.248436927734439" y1="314" y2="314" />
<line x1="4.590072121406986" x2="4.590072121406986" y1="308" y2="320" />
<line x1="5.248436927734439" x2="5.248436927734439" y1="308" y2="320" />
</g>
</g>
<text fill="hsl(56, 100%, 40%)" y="352">boolean not (Church).fusion.4 2.48 μs</text>
<g>
<title>2.48 μs ± 210 ns</title>
<rect y="358" rx="5" height="22" width="34.04719107067071" fill="hsl(56, 100%, 80%)" stroke="hsl(56, 100%, 55%)" />
<g stroke="hsl(56, 100%, 40%)"><line x1="31.16212518859129" x2="36.93225695275014" y1="369" y2="369" />
<line x1="31.16212518859129" x2="31.16212518859129" y1="363" y2="375" />
<line x1="36.93225695275014" x2="36.93225695275014" y1="363" y2="375" />
</g>
</g>
<text fill="hsl(66, 100%, 40%)" y="407">boolean not (Church).fusion.16 4.57 μs</text>
<g>
<title>4.57 μs ± 293 ns</title>
<rect y="413" rx="5" height="22" width="62.68400206986984" fill="hsl(66, 100%, 80%)" stroke="hsl(66, 100%, 55%)" />
<g stroke="hsl(66, 100%, 40%)"><line x1="58.65939320211352" x2="66.70861093762616" y1="424" y2="424" />
<line x1="58.65939320211352" x2="58.65939320211352" y1="418" y2="430" />
<line x1="66.70861093762616" x2="66.70861093762616" y1="418" y2="430" />
</g>
</g>
<text fill="hsl(75, 100%, 40%)" y="462">boolean not (Church).fusion.64 6.50 μs</text>
<g>
<title>6.50 μs ± 579 ns</title>
<rect y="468" rx="5" height="22" width="89.1217039328286" fill="hsl(75, 100%, 80%)" stroke="hsl(75, 100%, 55%)" />
<g stroke="hsl(75, 100%, 40%)"><line x1="81.17245381108098" x2="97.0709540545762" y1="479" y2="479" />
<line x1="81.17245381108098" x2="81.17245381108098" y1="473" y2="485" />
<line x1="97.0709540545762" x2="97.0709540545762" y1="473" y2="485" />
</g>
</g>
<text fill="hsl(85, 100%, 40%)" y="517">boolean not (Church).fusion.256 8.54 μs</text>
<g>
<title>8.54 μs ± 755 ns</title>
<rect y="523" rx="5" height="22" width="117.14040609314286" fill="hsl(85, 100%, 80%)" stroke="hsl(85, 100%, 55%)" />
<g stroke="hsl(85, 100%, 40%)"><line x1="106.77706021148147" x2="127.50375197480425" y1="534" y2="534" />
<line x1="106.77706021148147" x2="106.77706021148147" y1="528" y2="540" />
<line x1="127.50375197480425" x2="127.50375197480425" y1="528" y2="540" />
</g>
</g>
<text fill="hsl(94, 100%, 40%)" y="572">boolean not (Church).fusion.1024 10.2 μs</text>
<g>
<title>10.2 μs ± 923 ns</title>
<rect y="578" rx="5" height="22" width="140.39929974035547" fill="hsl(94, 100%, 80%)" stroke="hsl(94, 100%, 55%)" />
<g stroke="hsl(94, 100%, 40%)"><line x1="127.73807079279484" x2="153.0605286879161" y1="589" y2="589" />
<line x1="127.73807079279484" x2="127.73807079279484" y1="583" y2="595" />
<line x1="153.0605286879161" x2="153.0605286879161" y1="583" y2="595" />
</g>
</g>
<text fill="hsl(104, 100%, 40%)" y="627">boolean not (Church).fusion.4096 12.4 μs</text>
<g>
<title>12.4 μs ± 560 ns</title>
<rect y="633" rx="5" height="22" width="170.22360689708282" fill="hsl(104, 100%, 80%)" stroke="hsl(104, 100%, 55%)" />
<g stroke="hsl(104, 100%, 40%)"><line x1="162.53737889390177" x2="177.90983490026386" y1="644" y2="644" />
<line x1="162.53737889390177" x2="162.53737889390177" y1="638" y2="650" />
<line x1="177.90983490026386" x2="177.90983490026386" y1="638" y2="650" />
</g>
</g>
<text fill="hsl(113, 100%, 40%)" y="682">boolean not (Church).fusion.16384 14.3 μs</text>
<g>
<title>14.3 μs ± 691 ns</title>
<rect y="688" rx="5" height="22" width="196.26018973884737" fill="hsl(113, 100%, 80%)" stroke="hsl(113, 100%, 55%)" />
<g stroke="hsl(113, 100%, 40%)"><line x1="186.7814872644211" x2="205.73889221327366" y1="699" y2="699" />
<line x1="186.7814872644211" x2="186.7814872644211" y1="693" y2="705" />
<line x1="205.73889221327366" x2="205.73889221327366" y1="693" y2="705" />
</g>
</g>
<text fill="hsl(123, 100%, 40%)" y="737">boolean not (Church).fusion.65536 16.3 μs</text>
<g>
<title>16.3 μs ± 1.0 μs</title>
<rect y="743" rx="5" height="22" width="223.20828074048933" fill="hsl(123, 100%, 80%)" stroke="hsl(123, 100%, 55%)" />
<g stroke="hsl(123, 100%, 40%)"><line x1="208.92800452975237" x2="237.4885569512263" y1="754" y2="754" />
<line x1="208.92800452975237" x2="208.92800452975237" y1="748" y2="760" />
<line x1="237.4885569512263" x2="237.4885569512263" y1="748" y2="760" />
</g>
</g>
<text fill="hsl(132, 100%, 40%)" y="792">boolean not (Church).fusion.262144 18.0 μs</text>
<g>
<title>18.0 μs ± 933 ns</title>
<rect y="798" rx="5" height="22" width="247.39289699279766" fill="hsl(132, 100%, 80%)" stroke="hsl(132, 100%, 55%)" />
<g stroke="hsl(132, 100%, 40%)"><line x1="234.597947984332" x2="260.1878460012633" y1="809" y2="809" />
<line x1="234.597947984332" x2="234.597947984332" y1="803" y2="815" />
<line x1="260.1878460012633" x2="260.1878460012633" y1="803" y2="815" />
</g>
</g>
<text fill="hsl(142, 100%, 40%)" y="847">boolean not (Church).fusion.1048576 20.0 μs</text>
<g>
<title>20.0 μs ± 2.0 μs</title>
<rect y="853" rx="5" height="22" width="274.0380392005977" fill="hsl(142, 100%, 80%)" stroke="hsl(142, 100%, 55%)" />
<g stroke="hsl(142, 100%, 40%)"><line x1="246.68000689178146" x2="301.396071509414" y1="864" y2="864" />
<line x1="246.68000689178146" x2="246.68000689178146" y1="858" y2="870" />
<line x1="301.396071509414" x2="301.396071509414" y1="858" y2="870" />
</g>
</g>
<text fill="hsl(151, 100%, 40%)" y="902">boolean not (Church).fusion.4194304 22.7 μs</text>
<g>
<title>22.7 μs ± 1.6 μs</title>
<rect y="908" rx="5" height="22" width="310.83955344245476" fill="hsl(151, 100%, 80%)" stroke="hsl(151, 100%, 55%)" />
<g stroke="hsl(151, 100%, 40%)"><line x1="288.62874188147384" x2="333.0503650034357" y1="919" y2="919" />
<line x1="288.62874188147384" x2="288.62874188147384" y1="913" y2="925" />
<line x1="333.0503650034357" x2="333.0503650034357" y1="913" y2="925" />
</g>
</g>
<text fill="hsl(161, 100%, 40%)" y="957">boolean not (Church).fusion.16777216 24.3 μs</text>
<g>
<title>24.3 μs ± 2.0 μs</title>
<rect y="963" rx="5" height="22" width="334.0927393587689" fill="hsl(161, 100%, 80%)" stroke="hsl(161, 100%, 55%)" />
<g stroke="hsl(161, 100%, 40%)"><line x1="306.25188240976706" x2="361.9335963077707" y1="974" y2="974" />
<line x1="306.25188240976706" x2="306.25188240976706" y1="968" y2="980" />
<line x1="361.9335963077707" x2="361.9335963077707" y1="968" y2="980" />
</g>
</g>
<g fill="hsl(170, 100%, 40%)">
<text y="1012">boolean not (Church).fusion.67108864</text>
<text y="1012" x="357.95680340679604" text-anchor="end">26.1 μs</text>
</g>
<g>
<title>26.1 μs ± 2.1 μs</title>
<rect y="1018" rx="5" height="22" width="357.95680340679604" fill="hsl(170, 100%, 80%)" stroke="hsl(170, 100%, 55%)" />
<g stroke="hsl(170, 100%, 40%)"><line x1="328.88008551320564" x2="387.03352130038644" y1="1029" y2="1029" />
<line x1="328.88008551320564" x2="328.88008551320564" y1="1023" y2="1035" />
<line x1="387.03352130038644" x2="387.03352130038644" y1="1023" y2="1035" />
</g>
</g>
<g fill="hsl(180, 100%, 40%)">
<text y="1067">boolean not (Church).fusion.268435456</text>
<text y="1067" x="388.85523417197936" text-anchor="end">28.3 μs</text>
</g>
<g>
<title>28.3 μs ± 1.5 μs</title>
<rect y="1073" rx="5" height="22" width="388.85523417197936" fill="hsl(180, 100%, 80%)" stroke="hsl(180, 100%, 55%)" />
<g stroke="hsl(180, 100%, 40%)"><line x1="367.83116414064347" x2="409.87930420331526" y1="1084" y2="1084" />
<line x1="367.83116414064347" x2="367.83116414064347" y1="1078" y2="1090" />
<line x1="409.87930420331526" x2="409.87930420331526" y1="1078" y2="1090" />
</g>
</g>
<g fill="hsl(189, 100%, 40%)">
<text y="1122">boolean not (Church).fusion.1073741824</text>
<text y="1122" x="413.8384662528367" text-anchor="end">30.2 μs</text>
</g>
<g>
<title>30.2 μs ± 2.7 μs</title>
<rect y="1128" rx="5" height="22" width="413.8384662528367" fill="hsl(189, 100%, 80%)" stroke="hsl(189, 100%, 55%)" />
<g stroke="hsl(189, 100%, 40%)"><line x1="376.34432709875443" x2="451.332605406919" y1="1139" y2="1139" />
<line x1="376.34432709875443" x2="376.34432709875443" y1="1133" y2="1145" />
<line x1="451.332605406919" x2="451.332605406919" y1="1133" y2="1145" />
</g>
</g>
<g fill="hsl(198, 100%, 40%)">
<text y="1177">boolean not (Church).fusion.4294967296</text>
<text y="1177" x="441.09860274444003" text-anchor="end">32.1 μs</text>
</g>
<g>
<title>32.1 μs ± 2.7 μs</title>
<rect y="1183" rx="5" height="22" width="441.09860274444003" fill="hsl(198, 100%, 80%)" stroke="hsl(198, 100%, 55%)" />
<g stroke="hsl(198, 100%, 40%)"><line x1="403.4311187053306" x2="478.76608678354944" y1="1194" y2="1194" />
<line x1="403.4311187053306" x2="403.4311187053306" y1="1188" y2="1200" />
<line x1="478.76608678354944" x2="478.76608678354944" y1="1188" y2="1200" />
</g>
</g>
<g fill="hsl(208, 100%, 40%)">
<text y="1232">boolean not (Church).fusion.17179869184</text>
<text y="1232" x="473.1939830964522" text-anchor="end">34.5 μs</text>
</g>
<g>
<title>34.5 μs ± 1.4 μs</title>
<rect y="1238" rx="5" height="22" width="473.1939830964522" fill="hsl(208, 100%, 80%)" stroke="hsl(208, 100%, 55%)" />
<g stroke="hsl(208, 100%, 40%)"><line x1="453.3364305674913" x2="493.0515356254131" y1="1249" y2="1249" />
<line x1="453.3364305674913" x2="453.3364305674913" y1="1243" y2="1255" />
<line x1="493.0515356254131" x2="493.0515356254131" y1="1243" y2="1255" />
</g>
</g>
<g fill="hsl(217, 100%, 40%)">
<text y="1287">boolean not (Church).fusion.68719476736</text>
<text y="1287" x="491.83849188391144" text-anchor="end">35.8 μs</text>
</g>
<g>
<title>35.8 μs ± 1.9 μs</title>
<rect y="1293" rx="5" height="22" width="491.83849188391144" fill="hsl(217, 100%, 80%)" stroke="hsl(217, 100%, 55%)" />
<g stroke="hsl(217, 100%, 40%)"><line x1="465.83878976487546" x2="517.8381940029474" y1="1304" y2="1304" />
<line x1="465.83878976487546" x2="465.83878976487546" y1="1298" y2="1310" />
<line x1="517.8381940029474" x2="517.8381940029474" y1="1298" y2="1310" />
</g>
</g>
<g fill="hsl(227, 100%, 40%)">
<text y="1342">boolean not (Church).fusion.274877906944</text>
<text y="1342" x="523.4104348951143" text-anchor="end">38.1 μs</text>
</g>
<g>
<title>38.1 μs ± 2.8 μs</title>
<rect y="1348" rx="5" height="22" width="523.4104348951143" fill="hsl(227, 100%, 80%)" stroke="hsl(227, 100%, 55%)" />
<g stroke="hsl(227, 100%, 40%)"><line x1="484.75532132347195" x2="562.0655484667567" y1="1359" y2="1359" />
<line x1="484.75532132347195" x2="484.75532132347195" y1="1353" y2="1365" />
<line x1="562.0655484667567" x2="562.0655484667567" y1="1353" y2="1365" />
</g>
</g>
<g fill="hsl(236, 100%, 40%)">
<text y="1397">boolean not (Church).fusion.1099511627776</text>
<text y="1397" x="545.1544062065268" text-anchor="end">39.7 μs</text>
</g>
<g>
<title>39.7 μs ± 3.3 μs</title>
<rect y="1403" rx="5" height="22" width="545.1544062065268" fill="hsl(236, 100%, 80%)" stroke="hsl(236, 100%, 55%)" />
<g stroke="hsl(236, 100%, 40%)"><line x1="499.22223759048745" x2="591.0865748225661" y1="1414" y2="1414" />
<line x1="499.22223759048745" x2="499.22223759048745" y1="1408" y2="1420" />
<line x1="591.0865748225661" x2="591.0865748225661" y1="1408" y2="1420" />
</g>
</g>
<g fill="hsl(246, 100%, 40%)">
<text y="1452">boolean not (Church).fusion.4398046511104</text>
<text y="1452" x="572.0914796410739" text-anchor="end">41.7 μs</text>
</g>
<g>
<title>41.7 μs ± 3.6 μs</title>
<rect y="1458" rx="5" height="22" width="572.0914796410739" fill="hsl(246, 100%, 80%)" stroke="hsl(246, 100%, 55%)" />
<g stroke="hsl(246, 100%, 40%)"><line x1="523.1979865652299" x2="620.9849727169178" y1="1469" y2="1469" />
<line x1="523.1979865652299" x2="523.1979865652299" y1="1463" y2="1475" />
<line x1="620.9849727169178" x2="620.9849727169178" y1="1463" y2="1475" />
</g>
</g>
<g fill="hsl(255, 100%, 40%)">
<text y="1507">boolean not (Church).fusion.17592186044416</text>
<text y="1507" x="595.2317183440317" text-anchor="end">43.4 μs</text>
</g>
<g>
<title>43.4 μs ± 3.1 μs</title>
<rect y="1513" rx="5" height="22" width="595.2317183440317" fill="hsl(255, 100%, 80%)" stroke="hsl(255, 100%, 55%)" />
<g stroke="hsl(255, 100%, 40%)"><line x1="553.2449638295325" x2="637.218472858531" y1="1524" y2="1524" />
<line x1="553.2449638295325" x2="553.2449638295325" y1="1518" y2="1530" />
<line x1="637.218472858531" x2="637.218472858531" y1="1518" y2="1530" />
</g>
</g>
<g fill="hsl(265, 100%, 40%)">
<text y="1562">boolean not (Church).fusion.70368744177664</text>
<text y="1562" x="630.5063048064922" text-anchor="end">46.0 μs</text>
</g>
<g>
<title>46.0 μs ± 1.7 μs</title>
<rect y="1568" rx="5" height="22" width="630.5063048064922" fill="hsl(265, 100%, 80%)" stroke="hsl(265, 100%, 55%)" />
<g stroke="hsl(265, 100%, 40%)"><line x1="606.7786363182287" x2="654.2339732947556" y1="1579" y2="1579" />
<line x1="606.7786363182287" x2="606.7786363182287" y1="1573" y2="1585" />
<line x1="654.2339732947556" x2="654.2339732947556" y1="1573" y2="1585" />
</g>
</g>
<g fill="hsl(274, 100%, 40%)">
<text y="1617">boolean not (Church).fusion.281474976710656</text>
<text y="1617" x="652.6176289714518" text-anchor="end">47.6 μs</text>
</g>
<g>
<title>47.6 μs ± 3.5 μs</title>
<rect y="1623" rx="5" height="22" width="652.6176289714518" fill="hsl(274, 100%, 80%)" stroke="hsl(274, 100%, 55%)" />
<g stroke="hsl(274, 100%, 40%)"><line x1="604.7773494514454" x2="700.4579084914583" y1="1634" y2="1634" />
<line x1="604.7773494514454" x2="604.7773494514454" y1="1628" y2="1640" />
<line x1="700.4579084914583" x2="700.4579084914583" y1="1628" y2="1640" />
</g>
</g>
<g fill="hsl(284, 100%, 40%)">
<text y="1672">boolean not (Church).fusion.1125899906842624</text>
<text y="1672" x="680.9666523370081" text-anchor="end">49.6 μs</text>
</g>
<g>
<title>49.6 μs ± 4.1 μs</title>
<rect y="1678" rx="5" height="22" width="680.9666523370081" fill="hsl(284, 100%, 80%)" stroke="hsl(284, 100%, 55%)" />
<g stroke="hsl(284, 100%, 40%)"><line x1="624.526990193107" x2="737.4063144809091" y1="1689" y2="1689" />
<line x1="624.526990193107" x2="624.526990193107" y1="1683" y2="1695" />
<line x1="737.4063144809091" x2="737.4063144809091" y1="1683" y2="1695" />
</g>
</g>
<g fill="hsl(293, 100%, 40%)">
<text y="1727">boolean not (Church).fusion.4503599627370496</text>
<text y="1727" x="715.2802407709594" text-anchor="end">52.1 μs</text>
</g>
<g>
<title>52.1 μs ± 4.3 μs</title>
<rect y="1733" rx="5" height="22" width="715.2802407709594" fill="hsl(293, 100%, 80%)" stroke="hsl(293, 100%, 55%)" />
<g stroke="hsl(293, 100%, 40%)"><line x1="656.5451103703854" x2="774.0153711715334" y1="1744" y2="1744" />
<line x1="656.5451103703854" x2="656.5451103703854" y1="1738" y2="1750" />
<line x1="774.0153711715334" x2="774.0153711715334" y1="1738" y2="1750" />
</g>
</g>
<g fill="hsl(303, 100%, 40%)">
<text y="1782">boolean not (Church).fusion.18014398509481984</text>
<text y="1782" x="741.1608351690106" text-anchor="end">54.0 μs</text>
</g>
<g>
<title>54.0 μs ± 5.1 μs</title>
<rect y="1788" rx="5" height="22" width="741.1608351690106" fill="hsl(303, 100%, 80%)" stroke="hsl(303, 100%, 55%)" />
<g stroke="hsl(303, 100%, 40%)"><line x1="671.0762386100087" x2="811.2454317280126" y1="1799" y2="1799" />
<line x1="671.0762386100087" x2="671.0762386100087" y1="1793" y2="1805" />
<line x1="811.2454317280126" x2="811.2454317280126" y1="1793" y2="1805" />
</g>
</g>
<g fill="hsl(312, 100%, 40%)">
<text y="1837">boolean not (Church).fusion.72057594037927936</text>
<text y="1837" x="798.3067604090626" text-anchor="end">58.2 μs</text>
</g>
<g>
<title>58.2 μs ± 5.8 μs</title>
<rect y="1843" rx="5" height="22" width="798.3067604090626" fill="hsl(312, 100%, 80%)" stroke="hsl(312, 100%, 55%)" />
<g stroke="hsl(312, 100%, 40%)"><line x1="718.8155214782275" x2="877.7979993398976" y1="1854" y2="1854" />
<line x1="718.8155214782275" x2="718.8155214782275" y1="1848" y2="1860" />
<line x1="877.7979993398976" x2="877.7979993398976" y1="1848" y2="1860" />
</g>
</g>
<g fill="hsl(322, 100%, 40%)">
<text y="1892">boolean not (Church).fusion.288230376151711744</text>
<text y="1892" x="824.6928868863306" text-anchor="end">60.1 μs</text>
</g>
<g>
<title>60.1 μs ± 3.6 μs</title>
<rect y="1898" rx="5" height="22" width="824.6928868863306" fill="hsl(322, 100%, 80%)" stroke="hsl(322, 100%, 55%)" />
<g stroke="hsl(322, 100%, 40%)"><line x1="775.6183928825717" x2="873.7673808900895" y1="1909" y2="1909" />
<line x1="775.6183928825717" x2="775.6183928825717" y1="1903" y2="1915" />
<line x1="873.7673808900895" x2="873.7673808900895" y1="1903" y2="1915" />
</g>
</g>
<g fill="hsl(331, 100%, 40%)">
<text y="1947">boolean not (Church).fusion.1152921504606846976</text>
<text y="1947" x="828.2656245776201" text-anchor="end">60.4 μs</text>
</g>
<g>
<title>60.4 μs ± 3.9 μs</title>
<rect y="1953" rx="5" height="22" width="828.2656245776201" fill="hsl(331, 100%, 80%)" stroke="hsl(331, 100%, 55%)" />
<g stroke="hsl(331, 100%, 40%)"><line x1="774.1368525402235" x2="882.3943966150167" y1="1964" y2="1964" />
<line x1="774.1368525402235" x2="774.1368525402235" y1="1958" y2="1970" />
<line x1="882.3943966150167" x2="882.3943966150167" y1="1958" y2="1970" />
</g>
</g>
<g fill="hsl(341, 100%, 40%)">
<text y="2002">boolean not (Church).fusion.4611686018427387904</text>
<text y="2002" x="868.3702411078416" text-anchor="end">63.3 μs</text>
</g>
<g>
<title>63.3 μs ± 2.3 μs</title>
<rect y="2008" rx="5" height="22" width="868.3702411078416" fill="hsl(341, 100%, 80%)" stroke="hsl(341, 100%, 55%)" />
<g stroke="hsl(341, 100%, 40%)"><line x1="836.4955002283734" x2="900.2449819873098" y1="2019" y2="2019" />
<line x1="836.4955002283734" x2="836.4955002283734" y1="2013" y2="2025" />
<line x1="900.2449819873098" x2="900.2449819873098" y1="2013" y2="2025" />
</g>
</g>
<g fill="hsl(350, 100%, 40%)">
<text y="2057">boolean not (Church).fusion.18446744073709551616</text>
<text y="2057" x="884.9894384208176" text-anchor="end">64.5 μs</text>
</g>
<g>
<title>64.5 μs ± 4.0 μs</title>
<rect y="2063" rx="5" height="22" width="884.9894384208176" fill="hsl(350, 100%, 80%)" stroke="hsl(350, 100%, 55%)" />
<g stroke="hsl(350, 100%, 40%)"><line x1="829.9788768416352" x2="940.0" y1="2074" y2="2074" />
<line x1="829.9788768416352" x2="829.9788768416352" y1="2068" y2="2080" />
<line x1="940.0" x2="940.0" y1="2068" y2="2080" />
</g>
</g>
</g>
</svg>
