<svg xmlns="http://www.w3.org/2000/svg" height="887" width="960.0" font-size="16" font-family="sans-serif" stroke-width="2">
<g transform="translate(10.0 0)">
<text fill="hsl(0, 100%, 40%)" y="22">boolean not (Church).no fusion.1 178  ns</text>
<g>
<title>178  ns ±  16 ns</title>
<rect y="28" rx="5" height="22" width="0.0004539893892929084" fill="hsl(0, 100%, 80%)" stroke="hsl(0, 100%, 55%)" />
<g stroke="hsl(0, 100%, 40%)"><line x1="0.00041365225508769763" x2="0.0004943265234981192" y1="39" y2="39" />
<line x1="0.00041365225508769763" x2="0.00041365225508769763" y1="33" y2="45" />
<line x1="0.0004943265234981192" x2="0.0004943265234981192" y1="33" y2="45" />
</g>
</g>
<text fill="hsl(22, 100%, 40%)" y="77">boolean not (Church).no fusion.4 901  ns</text>
<g>
<title>901  ns ±  55 ns</title>
<rect y="83" rx="5" height="22" width="0.002302046071367017" fill="hsl(22, 100%, 80%)" stroke="hsl(22, 100%, 55%)" />
<g stroke="hsl(22, 100%, 40%)"><line x1="0.002160590309644844" x2="0.0024435018330891903" y1="94" y2="94" />
<line x1="0.002160590309644844" x2="0.002160590309644844" y1="88" y2="100" />
<line x1="0.0024435018330891903" x2="0.0024435018330891903" y1="88" y2="100" />
</g>
</g>
<text fill="hsl(45, 100%, 40%)" y="132">boolean not (Church).no fusion.16 3.20 μs</text>
<g>
<title>3.20 μs ± 206 ns</title>
<rect y="138" rx="5" height="22" width="0.00816768489536165" fill="hsl(45, 100%, 80%)" stroke="hsl(45, 100%, 55%)" />
<g stroke="hsl(45, 100%, 40%)"><line x1="0.0076421632318628445" x2="0.008693206558860456" y1="149" y2="149" />
<line x1="0.0076421632318628445" x2="0.0076421632318628445" y1="143" y2="155" />
<line x1="0.008693206558860456" x2="0.008693206558860456" y1="143" y2="155" />
</g>
</g>
<text fill="hsl(67, 100%, 40%)" y="187">boolean not (Church).no fusion.64 15.0 μs</text>
<g>
<title>15.0 μs ± 710 ns</title>
<rect y="193" rx="5" height="22" width="0.03840311213405815" fill="hsl(67, 100%, 80%)" stroke="hsl(67, 100%, 55%)" />
<g stroke="hsl(67, 100%, 40%)"><line x1="0.036590024856631174" x2="0.040216199411485125" y1="204" y2="204" />
<line x1="0.036590024856631174" x2="0.036590024856631174" y1="198" y2="210" />
<line x1="0.040216199411485125" x2="0.040216199411485125" y1="198" y2="210" />
</g>
</g>
<text fill="hsl(90, 100%, 40%)" y="242">boolean not (Church).no fusion.256 97.9 μs</text>
<g>
<title>97.9 μs ± 3.9 μs</title>
<rect y="248" rx="5" height="22" width="0.2499461435183989" fill="hsl(90, 100%, 80%)" stroke="hsl(90, 100%, 55%)" />
<g stroke="hsl(90, 100%, 40%)"><line x1="0.24009345374877125" x2="0.25979883328802655" y1="259" y2="259" />
<line x1="0.24009345374877125" x2="0.24009345374877125" y1="253" y2="265" />
<line x1="0.25979883328802655" x2="0.25979883328802655" y1="253" y2="265" />
</g>
</g>
<text fill="hsl(112, 100%, 40%)" y="297">boolean not (Church).no fusion.1024 1.02 ms</text>
<g>
<title>1.02 ms ±  47 μs</title>
<rect y="303" rx="5" height="22" width="2.6070341599451945" fill="hsl(112, 100%, 80%)" stroke="hsl(112, 100%, 55%)" />
<g stroke="hsl(112, 100%, 40%)"><line x1="2.4865355721318427" x2="2.7275327477585463" y1="314" y2="314" />
<line x1="2.4865355721318427" x2="2.4865355721318427" y1="308" y2="320" />
<line x1="2.7275327477585463" x2="2.7275327477585463" y1="308" y2="320" />
</g>
</g>
<text fill="hsl(135, 100%, 40%)" y="352">boolean not (Church).no fusion.4096 14.3 ms</text>
<g>
<title>14.3 ms ± 1.1 ms</title>
<rect y="358" rx="5" height="22" width="36.617713224692935" fill="hsl(135, 100%, 80%)" stroke="hsl(135, 100%, 55%)" />
<g stroke="hsl(135, 100%, 40%)"><line x1="33.74018213194558" x2="39.49524431744029" y1="369" y2="369" />
<line x1="33.74018213194558" x2="33.74018213194558" y1="363" y2="375" />
<line x1="39.49524431744029" x2="39.49524431744029" y1="363" y2="375" />
</g>
</g>
<g fill="hsl(157, 100%, 40%)">
<text y="407">boolean not (Church).no fusion.16384</text>
<text y="407" x="909.3571060714253" text-anchor="end">356  ms</text>
</g>
<g>
<title>356  ms ±  12 ms</title>
<rect y="413" rx="5" height="22" width="909.3571060714253" fill="hsl(157, 100%, 80%)" stroke="hsl(157, 100%, 55%)" />
<g stroke="hsl(157, 100%, 40%)"><line x1="878.7142121428506" x2="940.0" y1="424" y2="424" />
<line x1="878.7142121428506" x2="878.7142121428506" y1="418" y2="430" />
<line x1="940.0" x2="940.0" y1="418" y2="430" />
</g>
</g>
<text fill="hsl(180, 100%, 40%)" y="462">boolean not (Church).fusion.1 194  ns</text>
<g>
<title>194  ns ±  12 ns</title>
<rect y="468" rx="5" height="22" width="0.0004948704466169917" fill="hsl(180, 100%, 80%)" stroke="hsl(180, 100%, 55%)" />
<g stroke="hsl(180, 100%, 40%)"><line x1="0.00046343015816836195" x2="0.0005263107350656214" y1="479" y2="479" />
<line x1="0.00046343015816836195" x2="0.00046343015816836195" y1="473" y2="485" />
<line x1="0.0005263107350656214" x2="0.0005263107350656214" y1="473" y2="485" />
</g>
</g>
<text fill="hsl(202, 100%, 40%)" y="517">boolean not (Church).fusion.4 595  ns</text>
<g>
<title>595  ns ±  47 ns</title>
<rect y="523" rx="5" height="22" width="0.0015189678733782545" fill="hsl(202, 100%, 80%)" stroke="hsl(202, 100%, 55%)" />
<g stroke="hsl(202, 100%, 40%)"><line x1="0.001399524399377588" x2="0.001638411347378921" y1="534" y2="534" />
<line x1="0.001399524399377588" x2="0.001399524399377588" y1="528" y2="540" />
<line x1="0.001638411347378921" x2="0.001638411347378921" y1="528" y2="540" />
</g>
</g>
<text fill="hsl(225, 100%, 40%)" y="572">boolean not (Church).fusion.16 1.14 μs</text>
<g>
<title>1.14 μs ± 104 ns</title>
<rect y="578" rx="5" height="22" width="0.002920062755000474" fill="hsl(225, 100%, 80%)" stroke="hsl(225, 100%, 55%)" />
<g stroke="hsl(225, 100%, 40%)"><line x1="0.0026556395103384607" x2="0.0031844859996624877" y1="589" y2="589" />
<line x1="0.0026556395103384607" x2="0.0026556395103384607" y1="583" y2="595" />
<line x1="0.0031844859996624877" x2="0.0031844859996624877" y1="583" y2="595" />
</g>
</g>
<text fill="hsl(247, 100%, 40%)" y="627">boolean not (Church).fusion.64 1.47 μs</text>
<g>
<title>1.47 μs ±  98 ns</title>
<rect y="633" rx="5" height="22" width="0.003756838677607316" fill="hsl(247, 100%, 80%)" stroke="hsl(247, 100%, 55%)" />
<g stroke="hsl(247, 100%, 40%)"><line x1="0.003507859785165682" x2="0.00400581757004895" y1="644" y2="644" />
<line x1="0.003507859785165682" x2="0.003507859785165682" y1="638" y2="650" />
<line x1="0.00400581757004895" x2="0.00400581757004895" y1="638" y2="650" />
</g>
</g>
<text fill="hsl(270, 100%, 40%)" y="682">boolean not (Church).fusion.256 1.82 μs</text>
<g>
<title>1.82 μs ± 169 ns</title>
<rect y="688" rx="5" height="22" width="0.004646449198005105" fill="hsl(270, 100%, 80%)" stroke="hsl(270, 100%, 55%)" />
<g stroke="hsl(270, 100%, 40%)"><line x1="0.004213905190647836" x2="0.005078993205362374" y1="699" y2="699" />
<line x1="0.004213905190647836" x2="0.004213905190647836" y1="693" y2="705" />
<line x1="0.005078993205362374" x2="0.005078993205362374" y1="693" y2="705" />
</g>
</g>
<text fill="hsl(292, 100%, 40%)" y="737">boolean not (Church).fusion.1024 2.14 μs</text>
<g>
<title>2.14 μs ± 170 ns</title>
<rect y="743" rx="5" height="22" width="0.005468717950479015" fill="hsl(292, 100%, 80%)" stroke="hsl(292, 100%, 55%)" />
<g stroke="hsl(292, 100%, 40%)"><line x1="0.005033814389310299" x2="0.005903621511647731" y1="754" y2="754" />
<line x1="0.005033814389310299" x2="0.005033814389310299" y1="748" y2="760" />
<line x1="0.005903621511647731" x2="0.005903621511647731" y1="748" y2="760" />
</g>
</g>
<text fill="hsl(315, 100%, 40%)" y="792">boolean not (Church).fusion.4096 2.52 μs</text>
<g>
<title>2.52 μs ± 165 ns</title>
<rect y="798" rx="5" height="22" width="0.0064353867996800726" fill="hsl(315, 100%, 80%)" stroke="hsl(315, 100%, 55%)" />
<g stroke="hsl(315, 100%, 40%)"><line x1="0.0060140991918908315" x2="0.006856674407469314" y1="809" y2="809" />
<line x1="0.0060140991918908315" x2="0.0060140991918908315" y1="803" y2="815" />
<line x1="0.006856674407469314" x2="0.006856674407469314" y1="803" y2="815" />
</g>
</g>
<text fill="hsl(337, 100%, 40%)" y="847">boolean not (Church).fusion.16384 2.75 μs</text>
<g>
<title>2.75 μs ± 203 ns</title>
<rect y="853" rx="5" height="22" width="0.007032034710267873" fill="hsl(337, 100%, 80%)" stroke="hsl(337, 100%, 55%)" />
<g stroke="hsl(337, 100%, 40%)"><line x1="0.0065142403301385885" x2="0.007549829090397157" y1="864" y2="864" />
<line x1="0.0065142403301385885" x2="0.0065142403301385885" y1="858" y2="870" />
<line x1="0.007549829090397157" x2="0.007549829090397157" y1="858" y2="870" />
</g>
</g>
</g>
</svg>
