<svg xmlns="http://www.w3.org/2000/svg" height="1822" width="960.0" font-size="16" font-family="sans-serif" stroke-width="2">
<g transform="translate(10.0 0)">
<text fill="hsl(0, 100%, 40%)" y="22">boolean not (Church).fusion.1 183  ns</text>
<g>
<title>183  ns ±  13 ns</title>
<rect y="28" rx="5" height="22" width="10.83884991004195" fill="hsl(0, 100%, 80%)" stroke="hsl(0, 100%, 55%)" />
<g stroke="hsl(0, 100%, 40%)"><line x1="10.081845605975243" x2="11.595854214108659" y1="39" y2="39" />
<line x1="10.081845605975243" x2="10.081845605975243" y1="33" y2="45" />
<line x1="11.595854214108659" x2="11.595854214108659" y1="33" y2="45" />
</g>
</g>
<text fill="hsl(10, 100%, 40%)" y="77">boolean not (Church).fusion.4 571  ns</text>
<g>
<title>571  ns ±  44 ns</title>
<rect y="83" rx="5" height="22" width="33.834942647610404" fill="hsl(10, 100%, 80%)" stroke="hsl(10, 100%, 55%)" />
<g stroke="hsl(10, 100%, 40%)"><line x1="31.236640529021983" x2="36.433244766198825" y1="94" y2="94" />
<line x1="31.236640529021983" x2="31.236640529021983" y1="88" y2="100" />
<line x1="36.433244766198825" x2="36.433244766198825" y1="88" y2="100" />
</g>
</g>
<text fill="hsl(21, 100%, 40%)" y="132">boolean not (Church).fusion.16 1.06 μs</text>
<g>
<title>1.06 μs ± 103 ns</title>
<rect y="138" rx="5" height="22" width="63.0122899102435" fill="hsl(21, 100%, 80%)" stroke="hsl(21, 100%, 55%)" />
<g stroke="hsl(21, 100%, 40%)"><line x1="56.89918116603141" x2="69.1253986544556" y1="149" y2="149" />
<line x1="56.89918116603141" x2="56.89918116603141" y1="143" y2="155" />
<line x1="69.1253986544556" x2="69.1253986544556" y1="143" y2="155" />
</g>
</g>
<text fill="hsl(32, 100%, 40%)" y="187">boolean not (Church).fusion.64 1.39 μs</text>
<g>
<title>1.39 μs ± 108 ns</title>
<rect y="193" rx="5" height="22" width="82.27445566168845" fill="hsl(32, 100%, 80%)" stroke="hsl(32, 100%, 55%)" />
<g stroke="hsl(32, 100%, 40%)"><line x1="75.89693418308234" x2="88.65197714029456" y1="204" y2="204" />
<line x1="75.89693418308234" x2="75.89693418308234" y1="198" y2="210" />
<line x1="88.65197714029456" x2="88.65197714029456" y1="198" y2="210" />
</g>
</g>
<text fill="hsl(43, 100%, 40%)" y="242">boolean not (Church).fusion.256 1.75 μs</text>
<g>
<title>1.75 μs ± 173 ns</title>
<rect y="248" rx="5" height="22" width="103.31640448716354" fill="hsl(43, 100%, 80%)" stroke="hsl(43, 100%, 55%)" />
<g stroke="hsl(43, 100%, 40%)"><line x1="93.05250129984893" x2="113.58030767447815" y1="259" y2="259" />
<line x1="93.05250129984893" x2="93.05250129984893" y1="253" y2="265" />
<line x1="113.58030767447815" x2="113.58030767447815" y1="253" y2="265" />
</g>
</g>
<text fill="hsl(54, 100%, 40%)" y="297">boolean not (Church).fusion.1024 2.02 μs</text>
<g>
<title>2.02 μs ±  89 ns</title>
<rect y="303" rx="5" height="22" width="119.30236265454504" fill="hsl(54, 100%, 80%)" stroke="hsl(54, 100%, 55%)" />
<g stroke="hsl(54, 100%, 40%)"><line x1="114.02287041285597" x2="124.5818548962341" y1="314" y2="314" />
<line x1="114.02287041285597" x2="114.02287041285597" y1="308" y2="320" />
<line x1="124.5818548962341" x2="124.5818548962341" y1="308" y2="320" />
</g>
</g>
<text fill="hsl(65, 100%, 40%)" y="352">boolean not (Church).fusion.4096 2.40 μs</text>
<g>
<title>2.40 μs ± 171 ns</title>
<rect y="358" rx="5" height="22" width="142.0160441195968" fill="hsl(65, 100%, 80%)" stroke="hsl(65, 100%, 55%)" />
<g stroke="hsl(65, 100%, 40%)"><line x1="131.87635452761555" x2="152.15573371157808" y1="369" y2="369" />
<line x1="131.87635452761555" x2="131.87635452761555" y1="363" y2="375" />
<line x1="152.15573371157808" x2="152.15573371157808" y1="363" y2="375" />
</g>
</g>
<text fill="hsl(76, 100%, 40%)" y="407">boolean not (Church).fusion.16384 2.77 μs</text>
<g>
<title>2.77 μs ± 186 ns</title>
<rect y="413" rx="5" height="22" width="164.281834331695" fill="hsl(76, 100%, 80%)" stroke="hsl(76, 100%, 55%)" />
<g stroke="hsl(76, 100%, 40%)"><line x1="153.27229433807537" x2="175.29137432531462" y1="424" y2="424" />
<line x1="153.27229433807537" x2="153.27229433807537" y1="418" y2="430" />
<line x1="175.29137432531462" x2="175.29137432531462" y1="418" y2="430" />
</g>
</g>
<text fill="hsl(87, 100%, 40%)" y="462">boolean not (Church).fusion.65536 3.05 μs</text>
<g>
<title>3.05 μs ± 179 ns</title>
<rect y="468" rx="5" height="22" width="180.51497636967545" fill="hsl(87, 100%, 80%)" stroke="hsl(87, 100%, 55%)" />
<g stroke="hsl(87, 100%, 40%)"><line x1="169.91975798718195" x2="191.11019475216895" y1="479" y2="479" />
<line x1="169.91975798718195" x2="169.91975798718195" y1="473" y2="485" />
<line x1="191.11019475216895" x2="191.11019475216895" y1="473" y2="485" />
</g>
</g>
<text fill="hsl(98, 100%, 40%)" y="517">boolean not (Church).fusion.262144 3.44 μs</text>
<g>
<title>3.44 μs ± 175 ns</title>
<rect y="523" rx="5" height="22" width="203.56269649291153" fill="hsl(98, 100%, 80%)" stroke="hsl(98, 100%, 55%)" />
<g stroke="hsl(98, 100%, 40%)"><line x1="193.2159053010847" x2="213.90948768473837" y1="534" y2="534" />
<line x1="193.2159053010847" x2="193.2159053010847" y1="528" y2="540" />
<line x1="213.90948768473837" x2="213.90948768473837" y1="528" y2="540" />
</g>
</g>
<text fill="hsl(109, 100%, 40%)" y="572">boolean not (Church).fusion.1048576 3.85 μs</text>
<g>
<title>3.85 μs ± 368 ns</title>
<rect y="578" rx="5" height="22" width="227.95337990639828" fill="hsl(109, 100%, 80%)" stroke="hsl(109, 100%, 55%)" />
<g stroke="hsl(109, 100%, 40%)"><line x1="206.1769249495098" x2="249.72983486328675" y1="589" y2="589" />
<line x1="206.1769249495098" x2="206.1769249495098" y1="583" y2="595" />
<line x1="249.72983486328675" x2="249.72983486328675" y1="583" y2="595" />
</g>
</g>
<text fill="hsl(120, 100%, 40%)" y="627">boolean not (Church).fusion.4194304 4.18 μs</text>
<g>
<title>4.18 μs ± 336 ns</title>
<rect y="633" rx="5" height="22" width="247.73957546351306" fill="hsl(120, 100%, 80%)" stroke="hsl(120, 100%, 55%)" />
<g stroke="hsl(120, 100%, 40%)"><line x1="227.8443229747472" x2="267.63482795227895" y1="644" y2="644" />
<line x1="227.8443229747472" x2="227.8443229747472" y1="638" y2="650" />
<line x1="267.63482795227895" x2="267.63482795227895" y1="638" y2="650" />
</g>
</g>
<text fill="hsl(130, 100%, 40%)" y="682">boolean not (Church).fusion.16777216 4.62 μs</text>
<g>
<title>4.62 μs ± 398 ns</title>
<rect y="688" rx="5" height="22" width="273.5831671846642" fill="hsl(130, 100%, 80%)" stroke="hsl(130, 100%, 55%)" />
<g stroke="hsl(130, 100%, 40%)"><line x1="249.99999055227912" x2="297.16634381704927" y1="699" y2="699" />
<line x1="249.99999055227912" x2="249.99999055227912" y1="693" y2="705" />
<line x1="297.16634381704927" x2="297.16634381704927" y1="693" y2="705" />
</g>
</g>
<text fill="hsl(141, 100%, 40%)" y="737">boolean not (Church).fusion.67108864 5.07 μs</text>
<g>
<title>5.07 μs ± 392 ns</title>
<rect y="743" rx="5" height="22" width="300.00620526307335" fill="hsl(141, 100%, 80%)" stroke="hsl(141, 100%, 55%)" />
<g stroke="hsl(141, 100%, 40%)"><line x1="276.79626147386335" x2="323.21614905228336" y1="754" y2="754" />
<line x1="276.79626147386335" x2="276.79626147386335" y1="748" y2="760" />
<line x1="323.21614905228336" x2="323.21614905228336" y1="748" y2="760" />
</g>
</g>
<text fill="hsl(152, 100%, 40%)" y="792">boolean not (Church).fusion.268435456 5.43 μs</text>
<g>
<title>5.43 μs ± 406 ns</title>
<rect y="798" rx="5" height="22" width="321.65655204166825" fill="hsl(152, 100%, 80%)" stroke="hsl(152, 100%, 55%)" />
<g stroke="hsl(152, 100%, 40%)"><line x1="297.6263722420922" x2="345.6867318412443" y1="809" y2="809" />
<line x1="297.6263722420922" x2="297.6263722420922" y1="803" y2="815" />
<line x1="345.6867318412443" x2="345.6867318412443" y1="803" y2="815" />
</g>
</g>
<text fill="hsl(163, 100%, 40%)" y="847">boolean not (Church).fusion.1073741824 5.93 μs</text>
<g>
<title>5.93 μs ± 380 ns</title>
<rect y="853" rx="5" height="22" width="350.85136499096643" fill="hsl(163, 100%, 80%)" stroke="hsl(163, 100%, 55%)" />
<g stroke="hsl(163, 100%, 40%)"><line x1="328.3534291605165" x2="373.34930082141636" y1="864" y2="864" />
<line x1="328.3534291605165" x2="328.3534291605165" y1="858" y2="870" />
<line x1="373.34930082141636" x2="373.34930082141636" y1="858" y2="870" />
</g>
</g>
<g fill="hsl(174, 100%, 40%)">
<text y="902">boolean not (Church).fusion.4294967296</text>
<text y="902" x="372.05914903118344" text-anchor="end">6.28 μs</text>
</g>
<g>
<title>6.28 μs ± 377 ns</title>
<rect y="908" rx="5" height="22" width="372.05914903118344" fill="hsl(174, 100%, 80%)" stroke="hsl(174, 100%, 55%)" />
<g stroke="hsl(174, 100%, 40%)"><line x1="349.7230816324024" x2="394.3952164299645" y1="919" y2="919" />
<line x1="349.7230816324024" x2="349.7230816324024" y1="913" y2="925" />
<line x1="394.3952164299645" x2="394.3952164299645" y1="913" y2="925" />
</g>
</g>
<g fill="hsl(185, 100%, 40%)">
<text y="957">boolean not (Church).fusion.17179869184</text>
<text y="957" x="401.33128464754805" text-anchor="end">6.78 μs</text>
</g>
<g>
<title>6.78 μs ± 459 ns</title>
<rect y="963" rx="5" height="22" width="401.33128464754805" fill="hsl(185, 100%, 80%)" stroke="hsl(185, 100%, 55%)" />
<g stroke="hsl(185, 100%, 40%)"><line x1="374.1716090318952" x2="428.4909602632009" y1="974" y2="974" />
<line x1="374.1716090318952" x2="374.1716090318952" y1="968" y2="980" />
<line x1="428.4909602632009" x2="428.4909602632009" y1="968" y2="980" />
</g>
</g>
<g fill="hsl(196, 100%, 40%)">
<text y="1012">boolean not (Church).fusion.68719476736</text>
<text y="1012" x="427.11259195388" text-anchor="end">7.21 μs</text>
</g>
<g>
<title>7.21 μs ± 700 ns</title>
<rect y="1018" rx="5" height="22" width="427.11259195388" fill="hsl(196, 100%, 80%)" stroke="hsl(196, 100%, 55%)" />
<g stroke="hsl(196, 100%, 40%)"><line x1="385.68173336705115" x2="468.5434505407088" y1="1029" y2="1029" />
<line x1="385.68173336705115" x2="385.68173336705115" y1="1023" y2="1035" />
<line x1="468.5434505407088" x2="468.5434505407088" y1="1023" y2="1035" />
</g>
</g>
<g fill="hsl(207, 100%, 40%)">
<text y="1067">boolean not (Church).fusion.274877906944</text>
<text y="1067" x="455.13631581085536" text-anchor="end">7.69 μs</text>
</g>
<g>
<title>7.69 μs ± 691 ns</title>
<rect y="1073" rx="5" height="22" width="455.13631581085536" fill="hsl(207, 100%, 80%)" stroke="hsl(207, 100%, 55%)" />
<g stroke="hsl(207, 100%, 40%)"><line x1="414.22327042935797" x2="496.04936119235276" y1="1084" y2="1084" />
<line x1="414.22327042935797" x2="414.22327042935797" y1="1078" y2="1090" />
<line x1="496.04936119235276" x2="496.04936119235276" y1="1078" y2="1090" />
</g>
</g>
<g fill="hsl(218, 100%, 40%)">
<text y="1122">boolean not (Church).fusion.1099511627776</text>
<text y="1122" x="487.70242072653605" text-anchor="end">8.24 μs</text>
</g>
<g>
<title>8.24 μs ± 732 ns</title>
<rect y="1128" rx="5" height="22" width="487.70242072653605" fill="hsl(218, 100%, 80%)" stroke="hsl(218, 100%, 55%)" />
<g stroke="hsl(218, 100%, 40%)"><line x1="444.35246801237906" x2="531.052373440693" y1="1139" y2="1139" />
<line x1="444.35246801237906" x2="444.35246801237906" y1="1133" y2="1145" />
<line x1="531.052373440693" x2="531.052373440693" y1="1133" y2="1145" />
</g>
</g>
<g fill="hsl(229, 100%, 40%)">
<text y="1177">boolean not (Church).fusion.4398046511104</text>
<text y="1177" x="519.6081450691242" text-anchor="end">8.78 μs</text>
</g>
<g>
<title>8.78 μs ± 779 ns</title>
<rect y="1183" rx="5" height="22" width="519.6081450691242" fill="hsl(229, 100%, 80%)" stroke="hsl(229, 100%, 55%)" />
<g stroke="hsl(229, 100%, 40%)"><line x1="473.498377039015" x2="565.7179130992336" y1="1194" y2="1194" />
<line x1="473.498377039015" x2="473.498377039015" y1="1188" y2="1200" />
<line x1="565.7179130992336" x2="565.7179130992336" y1="1188" y2="1200" />
</g>
</g>
<g fill="hsl(240, 100%, 40%)">
<text y="1232">boolean not (Church).fusion.17592186044416</text>
<text y="1232" x="546.7038193041502" text-anchor="end">9.23 μs</text>
</g>
<g>
<title>9.23 μs ± 731 ns</title>
<rect y="1238" rx="5" height="22" width="546.7038193041502" fill="hsl(240, 100%, 80%)" stroke="hsl(240, 100%, 55%)" />
<g stroke="hsl(240, 100%, 40%)"><line x1="503.4287026169243" x2="589.9789359913761" y1="1249" y2="1249" />
<line x1="503.4287026169243" x2="503.4287026169243" y1="1243" y2="1255" />
<line x1="589.9789359913761" x2="589.9789359913761" y1="1243" y2="1255" />
</g>
</g>
<g fill="hsl(250, 100%, 40%)">
<text y="1287">boolean not (Church).fusion.70368744177664</text>
<text y="1287" x="583.7765450251609" text-anchor="end">9.86 μs</text>
</g>
<g>
<title>9.86 μs ± 895 ns</title>
<rect y="1293" rx="5" height="22" width="583.7765450251609" fill="hsl(250, 100%, 80%)" stroke="hsl(250, 100%, 55%)" />
<g stroke="hsl(250, 100%, 40%)"><line x1="530.7584170532622" x2="636.7946729970596" y1="1304" y2="1304" />
<line x1="530.7584170532622" x2="530.7584170532622" y1="1298" y2="1310" />
<line x1="636.7946729970596" x2="636.7946729970596" y1="1298" y2="1310" />
</g>
</g>
<g fill="hsl(261, 100%, 40%)">
<text y="1342">boolean not (Church).fusion.281474976710656</text>
<text y="1342" x="603.7443837235925" text-anchor="end">10.2 μs</text>
</g>
<g>
<title>10.2 μs ± 785 ns</title>
<rect y="1348" rx="5" height="22" width="603.7443837235925" fill="hsl(261, 100%, 80%)" stroke="hsl(261, 100%, 55%)" />
<g stroke="hsl(261, 100%, 40%)"><line x1="557.2631590218334" x2="650.2256084253515" y1="1359" y2="1359" />
<line x1="557.2631590218334" x2="557.2631590218334" y1="1353" y2="1365" />
<line x1="650.2256084253515" x2="650.2256084253515" y1="1353" y2="1365" />
</g>
</g>
<g fill="hsl(272, 100%, 40%)">
<text y="1397">boolean not (Church).fusion.1125899906842624</text>
<text y="1397" x="636.0348268185525" text-anchor="end">10.7 μs</text>
</g>
<g>
<title>10.7 μs ± 673 ns</title>
<rect y="1403" rx="5" height="22" width="636.0348268185525" fill="hsl(272, 100%, 80%)" stroke="hsl(272, 100%, 55%)" />
<g stroke="hsl(272, 100%, 40%)"><line x1="596.1602497221584" x2="675.9094039149466" y1="1414" y2="1414" />
<line x1="596.1602497221584" x2="596.1602497221584" y1="1408" y2="1420" />
<line x1="675.9094039149466" x2="675.9094039149466" y1="1408" y2="1420" />
</g>
</g>
<g fill="hsl(283, 100%, 40%)">
<text y="1452">boolean not (Church).fusion.4503599627370496</text>
<text y="1452" x="672.3640471390884" text-anchor="end">11.4 μs</text>
</g>
<g>
<title>11.4 μs ± 895 ns</title>
<rect y="1458" rx="5" height="22" width="672.3640471390884" fill="hsl(283, 100%, 80%)" stroke="hsl(283, 100%, 55%)" />
<g stroke="hsl(283, 100%, 40%)"><line x1="619.3691278084531" x2="725.3589664697237" y1="1469" y2="1469" />
<line x1="619.3691278084531" x2="619.3691278084531" y1="1463" y2="1475" />
<line x1="725.3589664697237" x2="725.3589664697237" y1="1463" y2="1475" />
</g>
</g>
<g fill="hsl(294, 100%, 40%)">
<text y="1507">boolean not (Church).fusion.18014398509481984</text>
<text y="1507" x="703.6819771182498" text-anchor="end">11.9 μs</text>
</g>
<g>
<title>11.9 μs ± 725 ns</title>
<rect y="1513" rx="5" height="22" width="703.6819771182498" fill="hsl(294, 100%, 80%)" stroke="hsl(294, 100%, 55%)" />
<g stroke="hsl(294, 100%, 40%)"><line x1="660.739596563423" x2="746.6243576730767" y1="1524" y2="1524" />
<line x1="660.739596563423" x2="660.739596563423" y1="1518" y2="1530" />
<line x1="746.6243576730767" x2="746.6243576730767" y1="1518" y2="1530" />
</g>
</g>
<g fill="hsl(305, 100%, 40%)">
<text y="1562">boolean not (Church).fusion.72057594037927936</text>
<text y="1562" x="718.6815088262183" text-anchor="end">12.1 μs</text>
</g>
<g>
<title>12.1 μs ± 743 ns</title>
<rect y="1568" rx="5" height="22" width="718.6815088262183" fill="hsl(305, 100%, 80%)" stroke="hsl(305, 100%, 55%)" />
<g stroke="hsl(305, 100%, 40%)"><line x1="674.6639524414328" x2="762.6990652110038" y1="1579" y2="1579" />
<line x1="674.6639524414328" x2="674.6639524414328" y1="1573" y2="1585" />
<line x1="762.6990652110038" x2="762.6990652110038" y1="1573" y2="1585" />
</g>
</g>
<g fill="hsl(316, 100%, 40%)">
<text y="1617">boolean not (Church).fusion.288230376151711744</text>
<text y="1617" x="760.5354514703646" text-anchor="end">12.8 μs</text>
</g>
<g>
<title>12.8 μs ± 726 ns</title>
<rect y="1623" rx="5" height="22" width="760.5354514703646" fill="hsl(316, 100%, 80%)" stroke="hsl(316, 100%, 55%)" />
<g stroke="hsl(316, 100%, 40%)"><line x1="717.5776774289855" x2="803.4932255117437" y1="1634" y2="1634" />
<line x1="717.5776774289855" x2="717.5776774289855" y1="1628" y2="1640" />
<line x1="803.4932255117437" x2="803.4932255117437" y1="1628" y2="1640" />
</g>
</g>
<g fill="hsl(327, 100%, 40%)">
<text y="1672">boolean not (Church).fusion.1152921504606846976</text>
<text y="1672" x="796.1670508214951" text-anchor="end">13.4 μs</text>
</g>
<g>
<title>13.4 μs ± 885 ns</title>
<rect y="1678" rx="5" height="22" width="796.1670508214951" fill="hsl(327, 100%, 80%)" stroke="hsl(327, 100%, 55%)" />
<g stroke="hsl(327, 100%, 40%)"><line x1="743.7736615807486" x2="848.5604400622416" y1="1689" y2="1689" />
<line x1="743.7736615807486" x2="743.7736615807486" y1="1683" y2="1695" />
<line x1="848.5604400622416" x2="848.5604400622416" y1="1683" y2="1695" />
</g>
</g>
<g fill="hsl(338, 100%, 40%)">
<text y="1727">boolean not (Church).fusion.4611686018427387904</text>
<text y="1727" x="826.5420113378949" text-anchor="end">14.0 μs</text>
</g>
<g>
<title>14.0 μs ± 896 ns</title>
<rect y="1733" rx="5" height="22" width="826.5420113378949" fill="hsl(338, 100%, 80%)" stroke="hsl(338, 100%, 55%)" />
<g stroke="hsl(338, 100%, 40%)"><line x1="773.4848075924405" x2="879.5992150833493" y1="1744" y2="1744" />
<line x1="773.4848075924405" x2="773.4848075924405" y1="1738" y2="1750" />
<line x1="879.5992150833493" x2="879.5992150833493" y1="1738" y2="1750" />
</g>
</g>
<g fill="hsl(349, 100%, 40%)">
<text y="1782">boolean not (Church).fusion.18446744073709551616</text>
<text y="1782" x="862.0679876889899" text-anchor="end">14.6 μs</text>
</g>
<g>
<title>14.6 μs ± 1.3 μs</title>
<rect y="1788" rx="5" height="22" width="862.0679876889899" fill="hsl(349, 100%, 80%)" stroke="hsl(349, 100%, 55%)" />
<g stroke="hsl(349, 100%, 40%)"><line x1="784.1359753779798" x2="940.0" y1="1799" y2="1799" />
<line x1="784.1359753779798" x2="784.1359753779798" y1="1793" y2="1805" />
<line x1="940.0" x2="940.0" y1="1793" y2="1805" />
</g>
</g>
</g>
</svg>
