<svg xmlns="http://www.w3.org/2000/svg" height="777" width="960.0" font-size="16" font-family="sans-serif" stroke-width="2">
<g transform="translate(10.0 0)">
<text fill="hsl(0, 100%, 40%)" y="22">boolean not (Church).no fusion.1 372  ns</text>
<g>
<title>372  ns ±  37 ns</title>
<rect y="28" rx="5" height="22" width="5.078261283785319" fill="hsl(0, 100%, 80%)" stroke="hsl(0, 100%, 55%)" />
<g stroke="hsl(0, 100%, 40%)"><line x1="4.575160270067789" x2="5.581362297502849" y1="39" y2="39" />
<line x1="4.575160270067789" x2="4.575160270067789" y1="33" y2="45" />
<line x1="5.581362297502849" x2="5.581362297502849" y1="33" y2="45" />
</g>
</g>
<text fill="hsl(25, 100%, 40%)" y="77">boolean not (Church).no fusion.4 1.64 μs</text>
<g>
<title>1.64 μs ± 119 ns</title>
<rect y="83" rx="5" height="22" width="22.37889205470482" fill="hsl(25, 100%, 80%)" stroke="hsl(25, 100%, 55%)" />
<g stroke="hsl(25, 100%, 40%)"><line x1="20.75338153641067" x2="24.00440257299897" y1="94" y2="94" />
<line x1="20.75338153641067" x2="20.75338153641067" y1="88" y2="100" />
<line x1="24.00440257299897" x2="24.00440257299897" y1="88" y2="100" />
</g>
</g>
<text fill="hsl(51, 100%, 40%)" y="132">boolean not (Church).no fusion.16 3.91 μs</text>
<g>
<title>3.91 μs ± 368 ns</title>
<rect y="138" rx="5" height="22" width="53.402187975948706" fill="hsl(51, 100%, 80%)" stroke="hsl(51, 100%, 55%)" />
<g stroke="hsl(51, 100%, 40%)"><line x1="48.37628976496147" x2="58.42808618693594" y1="149" y2="149" />
<line x1="48.37628976496147" x2="48.37628976496147" y1="143" y2="155" />
<line x1="58.42808618693594" x2="58.42808618693594" y1="143" y2="155" />
</g>
</g>
<text fill="hsl(77, 100%, 40%)" y="187">boolean not (Church).no fusion.64 14.0 μs</text>
<g>
<title>14.0 μs ± 663 ns</title>
<rect y="193" rx="5" height="22" width="190.80216658077237" fill="hsl(77, 100%, 80%)" stroke="hsl(77, 100%, 55%)" />
<g stroke="hsl(77, 100%, 40%)"><line x1="181.74454412461398" x2="199.85978903693075" y1="204" y2="204" />
<line x1="181.74454412461398" x2="181.74454412461398" y1="198" y2="210" />
<line x1="199.85978903693075" x2="199.85978903693075" y1="198" y2="210" />
</g>
</g>
<g fill="hsl(102, 100%, 40%)">
<text y="242">boolean not (Church).no fusion.256</text>
<text y="242" x="724.0718824415179" text-anchor="end">53.0 μs</text>
</g>
<g>
<title>53.0 μs ± 2.3 μs</title>
<rect y="248" rx="5" height="22" width="724.0718824415179" fill="hsl(102, 100%, 80%)" stroke="hsl(102, 100%, 55%)" />
<g stroke="hsl(102, 100%, 40%)"><line x1="692.1030988675111" x2="756.0406660155247" y1="259" y2="259" />
<line x1="692.1030988675111" x2="692.1030988675111" y1="253" y2="265" />
<line x1="756.0406660155247" x2="756.0406660155247" y1="253" y2="265" />
</g>
</g>
<text fill="hsl(128, 100%, 40%)" y="297">boolean not (Church).fusion.1 358  ns</text>
<g>
<title>358  ns ±  26 ns</title>
<rect y="303" rx="5" height="22" width="4.8870697770508915" fill="hsl(128, 100%, 80%)" stroke="hsl(128, 100%, 55%)" />
<g stroke="hsl(128, 100%, 40%)"><line x1="4.52691134107347" x2="5.247228213028313" y1="314" y2="314" />
<line x1="4.52691134107347" x2="4.52691134107347" y1="308" y2="320" />
<line x1="5.247228213028313" x2="5.247228213028313" y1="308" y2="320" />
</g>
</g>
<text fill="hsl(154, 100%, 40%)" y="352">boolean not (Church).fusion.256 8.28 μs</text>
<g>
<title>8.28 μs ± 681 ns</title>
<rect y="358" rx="5" height="22" width="113.22725151041817" fill="hsl(154, 100%, 80%)" stroke="hsl(154, 100%, 55%)" />
<g stroke="hsl(154, 100%, 40%)"><line x1="103.91898065202244" x2="122.5355223688139" y1="369" y2="369" />
<line x1="103.91898065202244" x2="103.91898065202244" y1="363" y2="375" />
<line x1="122.5355223688139" x2="122.5355223688139" y1="363" y2="375" />
</g>
</g>
<text fill="hsl(180, 100%, 40%)" y="407">boolean not (Church).fusion.65536 16.4 μs</text>
<g>
<title>16.4 μs ± 1.3 μs</title>
<rect y="413" rx="5" height="22" width="224.06203955531012" fill="hsl(180, 100%, 80%)" stroke="hsl(180, 100%, 55%)" />
<g stroke="hsl(180, 100%, 40%)"><line x1="205.83105188641434" x2="242.2930272242059" y1="424" y2="424" />
<line x1="205.83105188641434" x2="205.83105188641434" y1="418" y2="430" />
<line x1="242.2930272242059" x2="242.2930272242059" y1="418" y2="430" />
</g>
</g>
<text fill="hsl(205, 100%, 40%)" y="462">boolean not (Church).fusion.16777216 24.4 μs</text>
<g>
<title>24.4 μs ± 1.0 μs</title>
<rect y="468" rx="5" height="22" width="333.0842943919846" fill="hsl(205, 100%, 80%)" stroke="hsl(205, 100%, 55%)" />
<g stroke="hsl(205, 100%, 40%)"><line x1="319.06761147633534" x2="347.10097730763385" y1="479" y2="479" />
<line x1="319.06761147633534" x2="319.06761147633534" y1="473" y2="485" />
<line x1="347.10097730763385" x2="347.10097730763385" y1="473" y2="485" />
</g>
</g>
<g fill="hsl(231, 100%, 40%)">
<text y="517">boolean not (Church).fusion.4294967296</text>
<text y="517" x="449.7873276722439" text-anchor="end">32.9 μs</text>
</g>
<g>
<title>32.9 μs ± 3.0 μs</title>
<rect y="523" rx="5" height="22" width="449.7873276722439" fill="hsl(231, 100%, 80%)" stroke="hsl(231, 100%, 55%)" />
<g stroke="hsl(231, 100%, 40%)"><line x1="408.66447845709746" x2="490.9101768873904" y1="534" y2="534" />
<line x1="408.66447845709746" x2="408.66447845709746" y1="528" y2="540" />
<line x1="490.9101768873904" x2="490.9101768873904" y1="528" y2="540" />
</g>
</g>
<g fill="hsl(257, 100%, 40%)">
<text y="572">boolean not (Church).fusion.1099511627776</text>
<text y="572" x="553.2334961566257" text-anchor="end">40.5 μs</text>
</g>
<g>
<title>40.5 μs ± 3.6 μs</title>
<rect y="578" rx="5" height="22" width="553.2334961566257" fill="hsl(257, 100%, 80%)" stroke="hsl(257, 100%, 55%)" />
<g stroke="hsl(257, 100%, 40%)"><line x1="504.3107770196147" x2="602.1562152936367" y1="589" y2="589" />
<line x1="504.3107770196147" x2="504.3107770196147" y1="583" y2="595" />
<line x1="602.1562152936367" x2="602.1562152936367" y1="583" y2="595" />
</g>
</g>
<g fill="hsl(282, 100%, 40%)">
<text y="627">boolean not (Church).fusion.281474976710656</text>
<text y="627" x="662.6877634291992" text-anchor="end">48.5 μs</text>
</g>
<g>
<title>48.5 μs ± 4.8 μs</title>
<rect y="633" rx="5" height="22" width="662.6877634291992" fill="hsl(282, 100%, 80%)" stroke="hsl(282, 100%, 55%)" />
<g stroke="hsl(282, 100%, 40%)"><line x1="597.1864115881998" x2="728.1891152701986" y1="644" y2="644" />
<line x1="597.1864115881998" x2="597.1864115881998" y1="638" y2="650" />
<line x1="728.1891152701986" x2="728.1891152701986" y1="638" y2="650" />
</g>
</g>
<g fill="hsl(308, 100%, 40%)">
<text y="682">boolean not (Church).fusion.72057594037927936</text>
<text y="682" x="768.8726395347118" text-anchor="end">56.3 μs</text>
</g>
<g>
<title>56.3 μs ± 4.5 μs</title>
<rect y="688" rx="5" height="22" width="768.8726395347118" fill="hsl(308, 100%, 80%)" stroke="hsl(308, 100%, 55%)" />
<g stroke="hsl(308, 100%, 40%)"><line x1="707.146158150311" x2="830.5991209191126" y1="699" y2="699" />
<line x1="707.146158150311" x2="707.146158150311" y1="693" y2="705" />
<line x1="830.5991209191126" x2="830.5991209191126" y1="693" y2="705" />
</g>
</g>
<g fill="hsl(334, 100%, 40%)">
<text y="737">boolean not (Church).fusion.18446744073709551616</text>
<text y="737" x="866.6687080830886" text-anchor="end">63.4 μs</text>
</g>
<g>
<title>63.4 μs ± 5.4 μs</title>
<rect y="743" rx="5" height="22" width="866.6687080830886" fill="hsl(334, 100%, 80%)" stroke="hsl(334, 100%, 55%)" />
<g stroke="hsl(334, 100%, 40%)"><line x1="793.3374161661773" x2="940.0" y1="754" y2="754" />
<line x1="793.3374161661773" x2="793.3374161661773" y1="748" y2="760" />
<line x1="940.0" x2="940.0" y1="748" y2="760" />
</g>
</g>
</g>
</svg>
